<svg width="85" height="85" viewBox="0 0 85 85" fill="none" xmlns="http://www.w3.org/2000/svg">
<path d="M41.6982 4.89453C42.114 4.39137 42.886 4.39137 43.3018 4.89453C45.3188 7.33587 48.8788 7.80484 51.459 5.96875C51.9908 5.59043 52.7355 5.7902 53.0068 6.38379C54.3233 9.26392 57.6409 10.6379 60.6084 9.53223C61.22 9.30432 61.8876 9.69034 61.9961 10.334C62.5224 13.4567 65.3719 15.6428 68.5244 15.3428C69.174 15.2811 69.7189 15.826 69.6572 16.4756C69.3572 19.6281 71.5433 22.4776 74.666 23.0039C75.3097 23.1124 75.6957 23.78 75.4678 24.3916C74.3621 27.3591 75.7361 30.6767 78.6162 31.9932C79.2098 32.2645 79.4096 33.0092 79.0312 33.541C77.1951 36.1212 77.6641 39.6812 80.1055 41.6982C80.6086 42.114 80.6086 42.886 80.1055 43.3018C77.6641 45.3188 77.1951 48.8788 79.0312 51.459C79.4096 51.9908 79.2098 52.7355 78.6162 53.0068C75.7361 54.3233 74.3621 57.6409 75.4678 60.6084C75.6957 61.22 75.3097 61.8876 74.666 61.9961C71.5433 62.5224 69.3572 65.3719 69.6572 68.5244C69.7189 69.174 69.174 69.7189 68.5244 69.6572C65.3719 69.3572 62.5224 71.5433 61.9961 74.666C61.8876 75.3097 61.22 75.6957 60.6084 75.4678C57.6409 74.3621 54.3233 75.7361 53.0068 78.6162C52.7355 79.2098 51.9908 79.4096 51.459 79.0312C48.8788 77.1951 45.3188 77.6641 43.3018 80.1055C42.886 80.6086 42.114 80.6086 41.6982 80.1055C39.6812 77.6641 36.1212 77.1951 33.541 79.0312C33.0092 79.4096 32.2645 79.2098 31.9932 78.6162C30.6767 75.7361 27.3591 74.3621 24.3916 75.4678C23.78 75.6957 23.1124 75.3097 23.0039 74.666C22.4776 71.5433 19.6281 69.3572 16.4756 69.6572C15.826 69.7189 15.2811 69.174 15.3428 68.5244C15.6428 65.3719 13.4567 62.5224 10.334 61.9961C9.69034 61.8876 9.30432 61.22 9.53223 60.6084C10.6379 57.6409 9.26392 54.3233 6.38379 53.0068C5.7902 52.7355 5.59043 51.9908 5.96875 51.459C7.80484 48.8788 7.33587 45.3188 4.89453 43.3018C4.39137 42.886 4.39137 42.114 4.89453 41.6982C7.33587 39.6812 7.80484 36.1212 5.96875 33.541C5.59043 33.0092 5.79019 32.2645 6.38379 31.9932C9.26392 30.6767 10.6379 27.3591 9.53223 24.3916C9.30432 23.78 9.69034 23.1124 10.334 23.0039C13.4567 22.4776 15.6428 19.6281 15.3428 16.4756C15.2811 15.826 15.826 15.2811 16.4756 15.3428C19.6281 15.6428 22.4776 13.4567 23.0039 10.334C23.1124 9.69034 23.78 9.30433 24.3916 9.53223C27.3591 10.6379 30.6767 9.26392 31.9932 6.38379C32.2645 5.79019 33.0092 5.59043 33.541 5.96875C36.1212 7.80484 39.6812 7.33587 41.6982 4.89453Z" stroke="#FF3434" stroke-width="5"/>
<circle cx="42.5001" cy="41.917" r="28.5274" fill="#FF3434"/>
<circle cx="42.5001" cy="41.917" r="28.5274" stroke="#FF3434"/>
<path d="M31 31L54 53M31 53L54 31" stroke="white" stroke-width="6.18182" stroke-linecap="round" stroke-linejoin="round"/>
</svg>
