<svg width="29" height="17" viewBox="0 0 29 17" fill="none" xmlns="http://www.w3.org/2000/svg">
<g clip-path="url(#clip0_220_6060)">
<path d="M0 8.50125C0 13.1191 3.75857 16.8734 8.38169 16.8734V11.7163C6.67288 11.7163 5.28473 10.3298 5.28473 8.62288C5.28473 6.91601 6.67288 5.52942 8.38169 5.52942V0.125C3.75857 0.125 0 3.88337 0 8.50125Z" fill="#1C3A19"/>
<path d="M9.08789 6.57925V6.84278V10.3984V10.662C10.2163 10.662 11.1336 9.74568 11.1336 8.61858C11.1336 7.49147 10.2163 6.5752 9.08789 6.5752V6.57925Z" fill="#1C3A19"/>
<path d="M15.1202 0V16.9998H13.3262V0H15.1202Z" fill="#1C3A19"/>
<path d="M18.0925 2.77295C18.332 2.52969 18.6243 2.41211 18.9693 2.41211C19.3143 2.41211 19.6065 2.53374 19.846 2.77295C20.0855 3.01621 20.2032 3.30406 20.2032 3.64463C20.2032 3.98519 20.0855 4.25278 19.846 4.48793C19.6065 4.72308 19.3143 4.84065 18.9693 4.84065C18.6243 4.84065 18.332 4.72308 18.0925 4.48793C17.8531 4.25278 17.7354 3.97303 17.7354 3.64463C17.7354 3.31623 17.8531 3.01621 18.0925 2.77295ZM19.8704 7.83275V16.9996H18.0763V7.83275H19.8704Z" fill="#1C3A19"/>
<path d="M24.6593 7.83331V9.32125H24.7202C24.9475 8.77392 25.2803 8.3401 25.7268 8.02792C26.1733 7.71574 26.6888 7.55762 27.2732 7.55762C27.7806 7.55762 28.2717 7.70763 28.7507 8.00765L27.9308 9.61316C27.6385 9.36585 27.2732 9.24017 26.8349 9.24017C26.3681 9.24017 25.9825 9.33341 25.6781 9.52397C25.3737 9.71452 25.1504 9.98211 25.0084 10.3267C24.8703 10.6713 24.777 11.0119 24.7283 11.3444C24.6796 11.6768 24.6593 12.0579 24.6593 12.4917V16.9961H22.8652V7.82926H24.6593V7.83331Z" fill="#1C3A19"/>
</g>
<defs>
<clipPath id="clip0_220_6060">
<rect width="28.79" height="16.9998" fill="white"/>
</clipPath>
</defs>
</svg>
