<svg width="23" height="23" viewBox="0 0 23 23" fill="none" xmlns="http://www.w3.org/2000/svg">
<path d="M11.0183 3.30693C10.4338 3.30693 9.87331 3.53911 9.46004 3.95238C9.04677 4.36565 8.81459 4.92618 8.81459 5.51063C8.81459 6.09509 9.04677 6.65561 9.46004 7.06889C9.87331 7.48216 10.4338 7.71434 11.0183 7.71434C11.6028 7.71434 12.1633 7.48216 12.5765 7.06889C12.9898 6.65561 13.222 6.09509 13.222 5.51063C13.222 4.92618 12.9898 4.36565 12.5765 3.95238C12.1633 3.53911 11.6028 3.30693 11.0183 3.30693ZM7.71274 5.51063C7.71274 4.63395 8.061 3.79316 8.68091 3.17325C9.30083 2.55334 10.1416 2.20508 11.0183 2.20508C11.895 2.20508 12.7358 2.55334 13.3557 3.17325C13.9756 3.79316 14.3238 4.63395 14.3238 5.51063C14.3238 6.38732 13.9756 7.2281 13.3557 7.84801C12.7358 8.46793 11.895 8.81619 11.0183 8.81619C10.1416 8.81619 9.30083 8.46793 8.68091 7.84801C8.061 7.2281 7.71274 6.38732 7.71274 5.51063ZM5.56743 11.0155C5.52997 11.1947 5.51124 11.3798 5.51124 11.5708V12.1713L2.61227 12.9481C2.47113 12.9858 2.35075 13.0781 2.27761 13.2045C2.20446 13.331 2.18453 13.4813 2.22221 13.6225L2.93511 16.2834C3.14427 17.0627 3.63125 17.7386 4.30426 18.1837C4.97728 18.6288 5.78986 18.8124 6.58885 18.6998C6.84228 19.0414 7.13427 19.3543 7.45821 19.6287L7.26979 19.6838C6.71068 19.8337 6.1275 19.8721 5.55356 19.7967C4.97962 19.7212 4.42616 19.5335 3.9248 19.2441C3.42343 18.9547 2.98398 18.5695 2.63153 18.1102C2.27909 17.651 2.02057 17.1269 1.87072 16.5677L1.15782 13.9067C1.10167 13.6971 1.08737 13.4784 1.11573 13.2632C1.1441 13.048 1.21457 12.8405 1.32313 12.6526C1.43169 12.4646 1.57621 12.2999 1.74843 12.1678C1.92066 12.0357 2.11722 11.9388 2.32689 11.8826L5.56743 11.0155ZM16.5298 12.1713V11.5708C16.529 11.3798 16.5107 11.1947 16.4747 11.0155L19.7141 11.8837C20.1374 11.9974 20.4982 12.2744 20.7172 12.654C20.9362 13.0335 20.9955 13.4846 20.8821 13.9078L20.1692 16.5688C20.015 17.1438 19.746 17.6816 19.3784 18.1498C19.0107 18.6179 18.552 19.0068 18.0299 19.2928C17.5079 19.5789 16.9333 19.7562 16.3409 19.8141C15.7484 19.872 15.1503 19.8093 14.5828 19.6298C14.9082 19.3536 15.198 19.0439 15.4521 18.7009C16.2511 18.8131 17.0635 18.6293 17.7363 18.184C18.4091 17.7387 18.8959 17.0627 19.1048 16.2834L19.8188 13.6225C19.8565 13.4813 19.8365 13.331 19.7634 13.2045C19.6902 13.0781 19.5699 12.9858 19.4287 12.9481L16.5298 12.1713ZM16.5276 7.16341C16.5276 6.72507 16.7017 6.30468 17.0116 5.99472C17.3216 5.68476 17.742 5.51063 18.1803 5.51063C18.6187 5.51063 19.0391 5.68476 19.349 5.99472C19.659 6.30468 19.8331 6.72507 19.8331 7.16341C19.8331 7.60176 19.659 8.02215 19.349 8.3321C19.0391 8.64206 18.6187 8.81619 18.1803 8.81619C17.742 8.81619 17.3216 8.64206 17.0116 8.3321C16.7017 8.02215 16.5276 7.60176 16.5276 7.16341ZM18.1803 4.40878C17.4498 4.40878 16.7491 4.699 16.2325 5.21559C15.7159 5.73219 15.4257 6.43284 15.4257 7.16341C15.4257 7.89398 15.7159 8.59464 16.2325 9.11123C16.7491 9.62782 17.4498 9.91804 18.1803 9.91804C18.9109 9.91804 19.6116 9.62782 20.1281 9.11123C20.6447 8.59464 20.935 7.89398 20.935 7.16341C20.935 6.43284 20.6447 5.73219 20.1281 5.21559C19.6116 4.699 18.9109 4.40878 18.1803 4.40878ZM3.85626 5.51063C3.41791 5.51063 2.99752 5.68476 2.68757 5.99472C2.37761 6.30468 2.20348 6.72507 2.20348 7.16341C2.20348 7.60176 2.37761 8.02215 2.68757 8.3321C2.99752 8.64206 3.41791 8.81619 3.85626 8.81619C4.2946 8.81619 4.71499 8.64206 5.02495 8.3321C5.3349 8.02215 5.50904 7.60176 5.50904 7.16341C5.50904 6.72507 5.3349 6.30468 5.02495 5.99472C4.71499 5.68476 4.2946 5.51063 3.85626 5.51063ZM1.10163 7.16341C1.10163 6.43284 1.39185 5.73219 1.90844 5.21559C2.42503 4.699 3.12568 4.40878 3.85626 4.40878C4.58683 4.40878 5.28748 4.699 5.80407 5.21559C6.32067 5.73219 6.61089 6.43284 6.61089 7.16341C6.61089 7.89398 6.32067 8.59464 5.80407 9.11123C5.28748 9.62782 4.58683 9.91804 3.85626 9.91804C3.12568 9.91804 2.42503 9.62782 1.90844 9.11123C1.39185 8.59464 1.10163 7.89398 1.10163 7.16341ZM8.26366 9.91804C7.82532 9.91804 7.40493 10.0922 7.09497 10.4021C6.78502 10.7121 6.61089 11.1325 6.61089 11.5708V15.4273C6.61089 16.5962 7.07524 17.7173 7.90179 18.5438C8.72834 19.3704 9.84938 19.8347 11.0183 19.8347C12.1872 19.8347 13.3083 19.3704 14.1348 18.5438C14.9614 17.7173 15.4257 16.5962 15.4257 15.4273V11.5708C15.4257 11.1325 15.2516 10.7121 14.9416 10.4021C14.6317 10.0922 14.2113 9.91804 13.7729 9.91804H8.26366ZM7.71274 11.5708C7.71274 11.4247 7.77078 11.2846 7.8741 11.1813C7.97742 11.0779 8.11755 11.0199 8.26366 11.0199H13.7729C13.919 11.0199 14.0592 11.0779 14.1625 11.1813C14.2658 11.2846 14.3238 11.4247 14.3238 11.5708V15.4273C14.3238 16.304 13.9756 17.1448 13.3557 17.7647C12.7358 18.3846 11.895 18.7329 11.0183 18.7329C10.1416 18.7329 9.30083 18.3846 8.68091 17.7647C8.061 17.1448 7.71274 16.304 7.71274 15.4273V11.5708Z" fill="#556C53"/>
</svg>
