<svg width="33" height="33" viewBox="0 0 33 33" fill="none" xmlns="http://www.w3.org/2000/svg">
<g opacity="0.6">
<path d="M16.4999 4.46875C14.4649 4.46875 12.5055 4.51 10.6644 4.58975C7.30939 4.73413 5.63189 4.80562 4.30364 6.1435C2.97676 7.48 2.91901 9.11213 2.80489 12.375C2.73236 14.4369 2.73236 16.5006 2.80489 18.5625C2.91901 21.8254 2.97676 23.4575 4.30364 24.794C5.63051 26.1319 7.30939 26.2034 10.6644 26.3478L10.9999 26.3615V29.59C11 29.7819 11.0551 29.9698 11.1587 30.1313C11.2623 30.2929 11.41 30.4214 11.5844 30.5015C11.7587 30.5817 11.9524 30.6102 12.1425 30.5837C12.3326 30.5571 12.511 30.4766 12.6568 30.3517L15.6543 27.7819C16.4064 27.1356 16.7831 26.8139 17.2314 26.6434C17.6796 26.4729 18.1884 26.4633 19.2073 26.444C20.2807 26.4229 21.3234 26.3908 22.3354 26.3478C25.6904 26.2034 27.3679 26.1319 28.6961 24.794C30.023 23.4575 30.0808 21.8254 30.1949 18.5625C30.2155 17.9988 30.2416 17.4267 30.2499 16.8438" stroke="#1C3A19" stroke-width="2" stroke-linecap="round" stroke-linejoin="round"/>
<path d="M30.2495 12.375L28.0151 10.1406M16.6728 15.125H16.4995M11.17 15.125H10.9995M28.8745 6.875C28.8745 5.78098 28.4399 4.73177 27.6663 3.95818C26.8927 3.1846 25.8435 2.75 24.7495 2.75C23.6555 2.75 22.6063 3.1846 21.8327 3.95818C21.0591 4.73177 20.6245 5.78098 20.6245 6.875C20.6245 7.96902 21.0591 9.01823 21.8327 9.79182C22.6063 10.5654 23.6555 11 24.7495 11C25.8435 11 26.8927 10.5654 27.6663 9.79182C28.4399 9.01823 28.8745 7.96902 28.8745 6.875ZM16.8433 15.125C16.8433 15.2162 16.807 15.3036 16.7426 15.3681C16.6781 15.4325 16.5907 15.4688 16.4995 15.4688C16.4083 15.4688 16.3209 15.4325 16.2564 15.3681C16.192 15.3036 16.1558 15.2162 16.1558 15.125C16.1558 15.0338 16.192 14.9464 16.2564 14.8819C16.3209 14.8175 16.4083 14.7813 16.4995 14.7813C16.5907 14.7813 16.6781 14.8175 16.7426 14.8819C16.807 14.9464 16.8433 15.0338 16.8433 15.125ZM11.3433 15.125C11.3433 15.2162 11.307 15.3036 11.2426 15.3681C11.1781 15.4325 11.0907 15.4688 10.9995 15.4688C10.9083 15.4688 10.8209 15.4325 10.7564 15.3681C10.692 15.3036 10.6558 15.2162 10.6558 15.125C10.6558 15.0338 10.692 14.9464 10.7564 14.8819C10.8209 14.8175 10.9083 14.7813 10.9995 14.7813C11.0907 14.7813 11.1781 14.8175 11.2426 14.8819C11.307 14.9464 11.3433 15.0338 11.3433 15.125Z" stroke="#1C3A19" stroke-width="2" stroke-linecap="round" stroke-linejoin="round"/>
</g>
</svg>
