<svg width="85" height="85" viewBox="0 0 85 85" fill="none" xmlns="http://www.w3.org/2000/svg">
<path d="M41.5586 4.7793C42.0471 4.1881 42.9529 4.1881 43.4414 4.7793C45.3978 7.14707 48.851 7.60111 51.3535 5.82031C51.9782 5.37601 52.8529 5.61065 53.1719 6.30762C54.4487 9.10103 57.6668 10.4346 60.5449 9.3623C61.2635 9.09454 62.0484 9.54749 62.1758 10.3037C62.6862 13.3324 65.4493 15.452 68.5068 15.1611C69.2703 15.0885 69.9115 15.7297 69.8389 16.4932C69.548 19.5507 71.6677 22.3138 74.6963 22.8242C75.4525 22.9516 75.9055 23.7365 75.6377 24.4551C74.5654 27.3332 75.899 30.5513 78.6924 31.8281C79.3893 32.1471 79.624 33.0218 79.1797 33.6465C77.3989 36.149 77.8529 39.6022 80.2207 41.5586C80.8119 42.0471 80.8119 42.9529 80.2207 43.4414C77.8529 45.3978 77.3989 48.851 79.1797 51.3535C79.624 51.9782 79.3893 52.8529 78.6924 53.1719C75.899 54.4487 74.5654 57.6668 75.6377 60.5449C75.9055 61.2635 75.4525 62.0484 74.6963 62.1758C71.6677 62.6862 69.548 65.4493 69.8389 68.5068C69.9115 69.2703 69.2703 69.9115 68.5068 69.8389C65.4493 69.548 62.6862 71.6677 62.1758 74.6963C62.0484 75.4525 61.2635 75.9055 60.5449 75.6377C57.6668 74.5654 54.4487 75.899 53.1719 78.6924C52.8529 79.3893 51.9782 79.624 51.3535 79.1797C48.851 77.3989 45.3978 77.8529 43.4414 80.2207C42.9529 80.8119 42.0471 80.8119 41.5586 80.2207C39.6022 77.8529 36.149 77.3989 33.6465 79.1797C33.0218 79.624 32.1471 79.3893 31.8281 78.6924C30.5513 75.899 27.3332 74.5654 24.4551 75.6377C23.7365 75.9055 22.9516 75.4525 22.8242 74.6963C22.3138 71.6677 19.5507 69.548 16.4932 69.8389C15.7297 69.9115 15.0885 69.2703 15.1611 68.5068C15.452 65.4493 13.3324 62.6862 10.3037 62.1758C9.54749 62.0484 9.09454 61.2635 9.3623 60.5449C10.4346 57.6668 9.10104 54.4487 6.30762 53.1719C5.61065 52.8529 5.37602 51.9782 5.82031 51.3535C7.60111 48.851 7.14707 45.3978 4.7793 43.4414C4.1881 42.9529 4.1881 42.0471 4.7793 41.5586C7.14707 39.6022 7.60111 36.149 5.82031 33.6465C5.37602 33.0218 5.61065 32.1471 6.30762 31.8281C9.10103 30.5513 10.4346 27.3332 9.3623 24.4551C9.09454 23.7365 9.54748 22.9516 10.3037 22.8242C13.3324 22.3138 15.452 19.5507 15.1611 16.4932C15.0885 15.7297 15.7297 15.0885 16.4932 15.1611C19.5507 15.452 22.3138 13.3324 22.8242 10.3037C22.9516 9.54749 23.7365 9.09454 24.4551 9.3623C27.3332 10.4346 30.5513 9.10103 31.8281 6.30762C32.1471 5.61065 33.0218 5.37602 33.6465 5.82031C36.149 7.60111 39.6022 7.14707 41.5586 4.7793Z" stroke="#FF9D00" stroke-width="4.63636"/>
<circle cx="42.4991" cy="41.918" r="28.5274" fill="#FF9D00"/>
<circle cx="42.4991" cy="41.918" r="28.5274" stroke="#FF9D00"/>
<path d="M34.7725 42.5H50.227" stroke="white" stroke-width="7.72727" stroke-linecap="round"/>
</svg>
