<svg width="83" height="83" viewBox="0 0 83 83" fill="none" xmlns="http://www.w3.org/2000/svg">
<path d="M8.18311 41.4672C8.18311 59.8258 23.1086 74.7512 41.4672 74.7512V54.2489C34.6814 54.2489 29.169 48.7365 29.169 41.9507C29.169 35.165 34.6814 29.6525 41.4672 29.6525V8.18311C23.1086 8.18311 8.18311 23.1086 8.18311 41.4672Z" fill="#556C53"/>
<path d="M44.2715 33.8266V34.8743V49.0099V50.0576C48.7523 50.0576 52.3951 46.4149 52.3951 41.9341C52.3951 37.4532 48.7523 33.8105 44.2715 33.8105V33.8266Z" fill="#556C53"/>
<path d="M44.4229 53.7755C51.202 53.7755 56.6975 48.4108 56.6975 41.7931C56.6975 35.1754 51.202 29.8107 44.4229 29.8107" stroke="#556C53" stroke-width="2.11268"/>
</svg>
